<mxfile host="app.diagrams.net" modified="2022-10-01T00:34:22.381Z" agent="5.0 (Macintosh; Intel Mac OS X 10_15_7) AppleWebKit/537.36 (KHTML, like Gecko) Chrome/105.0.0.0 Safari/537.36" etag="U_uqov6nkPO3BLHHm2xa" version="20.3.2" type="github">
  <diagram id="xd_ivLJh1A_-zqhclp_y" name="Page-1">
    <mxGraphModel dx="321" dy="181" grid="0" gridSize="10" guides="1" tooltips="1" connect="1" arrows="1" fold="1" page="1" pageScale="1" pageWidth="827" pageHeight="1169" math="0" shadow="0">
      <root>
        <mxCell id="0" />
        <mxCell id="1" parent="0" />
        <mxCell id="wBiFnpuhDJ96sovLaJxK-5" value="&lt;b&gt;Service A&lt;/b&gt;" style="rounded=0;whiteSpace=wrap;html=1;fillColor=#dae8fc;strokeColor=#6c8ebf;sketch=1;shadow=1;fontFamily=Indie Flower;fontSource=https%3A%2F%2Ffonts.googleapis.com%2Fcss%3Ffamily%3DIndie%2BFlower;" vertex="1" parent="1">
          <mxGeometry x="282" y="111" width="120" height="60" as="geometry" />
        </mxCell>
        <mxCell id="wBiFnpuhDJ96sovLaJxK-6" value="&lt;b&gt;&lt;font data-font-src=&quot;https://fonts.googleapis.com/css?family=Indie+Flower&quot; face=&quot;Indie Flower&quot;&gt;Service B&lt;/font&gt;&lt;/b&gt;" style="rounded=0;whiteSpace=wrap;html=1;sketch=1;shadow=1;fillColor=#d5e8d4;strokeColor=#82b366;" vertex="1" parent="1">
          <mxGeometry x="282" y="271" width="120" height="60" as="geometry" />
        </mxCell>
      </root>
    </mxGraphModel>
  </diagram>
</mxfile>
